<?xml version="1.0" standalone="no"?>
<!DOCTYPE svg PUBLIC "-//W3C//DTD SVG 20010904//EN"
 "http://www.w3.org/TR/2001/REC-SVG-20010904/DTD/svg10.dtd">
<svg version="1.0" xmlns="http://www.w3.org/2000/svg"
 width="80.000000pt" height="80.000000pt" viewBox="0 0 80.000000 80.000000"
 preserveAspectRatio="xMidYMid meet">

<g transform="translate(0.000000,80.000000) scale(0.100000,-0.100000)"
fill="#000000" stroke="none">
<path d="M502 585 c-17 -21 -21 -23 -32 -10 -7 8 -18 15 -24 15 -18 0 -63 -51
-76 -85 l-12 -30 -51 58 c-29 31 -60 57 -69 57 -9 0 -51 -38 -92 -85 -72 -81
-76 -88 -76 -133 0 -40 5 -53 28 -75 15 -15 34 -27 41 -27 11 0 12 -12 7 -52
-3 -29 -6 -70 -6 -90 l0 -37 -73 -4 -72 -3 72 -2 72 -2 3 -43 c2 -23 7 37 11
133 7 134 12 179 24 192 14 16 12 18 -32 29 -44 11 -46 13 -30 26 11 7 33 13
49 13 17 0 38 5 46 10 12 8 11 10 -6 10 -19 0 -54 28 -54 43 0 15 74 87 89 87
10 0 39 -25 66 -56 48 -56 49 -72 5 -75 -10 0 -7 -4 7 -11 21 -10 21 -11 -16
-42 -20 -17 -47 -38 -60 -46 -21 -14 -24 -25 -31 -152 -4 -75 -4 -152 1 -170
8 -30 8 -29 4 9 l-5 43 50 1 c27 1 55 2 60 3 16 2 12 20 -5 22 -8 1 -13 -2 -9
-7 3 -5 -18 -9 -46 -9 -35 0 -49 4 -44 11 3 6 6 35 5 64 l-1 53 33 -12 c17 -6
39 -16 47 -21 8 -5 42 -15 74 -22 48 -10 63 -10 75 0 35 29 72 42 80 29 6 -10
11 -9 21 3 26 32 74 0 52 -35 -9 -14 -8 -20 1 -23 7 -3 -37 -6 -96 -6 -79 -1
-106 2 -101 11 5 7 3 8 -5 3 -29 -17 11 -26 109 -23 l103 3 3 32 c3 25 -2 36
-22 52 -26 20 -26 21 -5 21 25 0 102 42 123 67 7 9 14 28 15 42 1 14 5 45 9
69 4 28 2 48 -7 58 -17 20 -84 54 -106 54 -10 -1 -1 -7 19 -14 60 -22 90 -45
86 -68 -4 -25 -14 -30 -98 -52 -36 -9 -109 -29 -163 -43 -90 -24 -103 -25
-154 -13 l-56 12 29 23 c38 31 72 37 164 29 87 -7 125 5 117 37 -4 15 0 19 21
20 19 1 21 3 9 6 -10 3 -16 11 -13 18 3 8 0 16 -7 19 -7 2 -4 5 6 5 9 1 17 -3
17 -9 0 -5 12 -10 28 -9 25 0 25 1 6 9 -27 11 -38 27 -24 35 16 10 12 41 -9
66 -16 19 -21 21 -34 11 -10 -9 -17 -10 -22 -2 -10 16 -22 12 -43 -15z m43 5
c5 -8 12 -7 22 2 12 10 18 9 29 -7 18 -24 2 -44 -20 -26 -11 10 -19 9 -35 -1
-28 -17 -51 3 -31 27 15 18 26 19 35 5z m-56 -50 l32 -40 -24 -9 c-14 -5 -44
-15 -68 -21 -24 -7 -50 -17 -57 -22 -21 -18 -21 -5 0 42 22 50 55 90 73 90 6
0 26 -18 44 -40z m51 -33 c0 -6 -11 0 -25 13 -14 13 -25 28 -25 33 0 6 11 0
25 -13 14 -13 25 -28 25 -33z m10 -27 c0 -5 -2 -10 -4 -10 -3 0 -8 5 -11 10
-3 6 -1 10 4 10 6 0 11 -4 11 -10z m-56 -31 c-3 -5 -10 -7 -15 -3 -5 3 -7 10
-3 15 3 5 10 7 15 3 5 -3 7 -10 3 -15z m-60 -20 c-3 -5 -10 -7 -15 -3 -5 3 -7
10 -3 15 3 5 10 7 15 3 5 -3 7 -10 3 -15z m121 -219 c-3 -5 -11 -10 -16 -10
-6 0 -7 5 -4 10 3 6 11 10 16 10 6 0 7 -4 4 -10z"/>
<path d="M690 445 c-8 -10 -23 -15 -37 -12 -15 3 -22 0 -20 -7 2 -6 15 -12 29
-14 26 -3 53 19 46 39 -2 7 -9 5 -18 -6z"/>
<path d="M665 159 c-23 -20 -35 -40 -35 -57 0 -24 -1 -24 -18 -9 -28 25 -48
21 -79 -18 -15 -19 -35 -35 -44 -35 -9 0 -22 -7 -29 -15 -17 -20 4 -27 61 -22
43 3 43 4 -9 5 -33 1 -51 6 -47 12 3 6 14 10 24 10 10 0 31 16 45 35 29 37 56
44 76 20 16 -19 30 -10 30 20 0 25 51 75 76 75 21 0 71 -27 77 -42 4 -10 6
-10 6 0 1 15 -57 52 -81 52 -10 0 -33 -14 -53 -31z"/>
<path d="M13 134 c-10 -22 -10 -24 2 -14 8 7 20 8 27 4 9 -5 8 -2 -2 12 -8 10
-15 20 -15 21 0 1 -6 -10 -12 -23z"/>
</g>
</svg>
